<?xml version="1.0" encoding="UTF-8" standalone="no"?>
<svg width="17px" height="18px" viewBox="0 0 17 18" version="1.1" xmlns="http://www.w3.org/2000/svg" xmlns:xlink="http://www.w3.org/1999/xlink">
    <!-- Generator: Sketch 3.8.1 (29687) - http://www.bohemiancoding.com/sketch -->
    <title>directions</title>
    <desc>Created with Sketch.</desc>
    <defs></defs>
    <g id="Symbols" stroke="none" stroke-width="1" fill="none" fill-rule="evenodd">
        <g id="address-card" transform="translate(-285.000000, -13.000000)" fill="#53A318">
            <g id="Group-23-Copy-2" transform="translate(276.000000, 13.000000)">
                <path d="M25.4961539,4.94950892 L18.8160337,0.217961237 C18.618482,0.0785137298 18.386051,1.26752601e-06 18.1503958,1.26752601e-06 C18.0566027,1.26752601e-06 17.961051,-0.000584646371 17.8681372,0.0234378234 C17.5419131,0.106051683 17.2669821,0.30409058 17.1145683,0.60847285 C17.037189,0.762568205 16.4870339,2.05245765 16.9137925,3.52427336 L10.1724137,3.52427336 C9.5308103,3.52427336 9,4.04573673 9,4.69610115 L9,16.4143791 C9,17.0647435 9.5308103,17.5862069 10.1724137,17.5862069 L12.5172411,17.5862069 C13.1588445,17.5862069 13.6896548,17.0647435 13.6896548,16.4143791 L13.6896548,8.21158454 L16.9137925,8.21158454 C16.4984649,9.97782198 17.0304476,10.9211434 17.1048959,11.0769965 C17.2532062,11.386066 17.527258,11.6614456 17.8558269,11.7487467 C17.9528441,11.7748199 18.0519131,11.7871241 18.1503958,11.7871241 C18.3845855,11.7871241 18.6158441,11.7153496 18.8122234,11.577074 L25.4929297,6.88478252 C25.805378,6.66535776 25.9997056,6.25316734 25.9999987,5.86792895 C26.0005849,5.48239761 25.808309,5.17039845 25.4961539,4.94950892 L25.4961539,4.94950892 Z M18.1486418,10.5734717 C18.1486418,10.5734717 17.3934803,9.11456086 18.6705442,7.05805203 L12.5167256,7.05805203 L12.5167256,16.4137931 L10.1724138,16.4137931 L10.1724138,4.71911676 L18.6705442,4.71911676 C17.3788284,2.66260793 18.1486418,1.17241379 18.1486418,1.17241379 L24.8275862,5.8912157 L18.1486418,10.5734717 L18.1486418,10.5734717 Z" id="directions"></path>
            </g>
        </g>
    </g>
</svg>