<?xml version="1.0" encoding="UTF-8" standalone="no"?>
<svg width="14px" height="18px" viewBox="0 0 14 18" version="1.1" xmlns="http://www.w3.org/2000/svg" xmlns:xlink="http://www.w3.org/1999/xlink">
    <!-- Generator: Sketch 3.7.2 (28276) - http://www.bohemiancoding.com/sketch -->
    <title>marker</title>
    <desc>Created with Sketch.</desc>
    <defs></defs>
    <g id="Page-1" stroke="none" stroke-width="1" fill="none" fill-rule="evenodd">
        <g id="Local-Deal-Page-v5---white-Copy-2" transform="translate(-774.000000, -24.000000)" fill="#75787B">
            <g id="Group-28" transform="translate(-240.000000, 0.000000)">
                <g id="Header">
                    <g id="Group" transform="translate(429.000000, 13.000000)">
                        <g id="Search-Bar" transform="translate(180.000000, 0.000000)">
                            <g id="Location-Selector" transform="translate(405.000000, 11.000000)">
                                <path d="M0,6.98285492 C0,3.12633064 3.02207794,0 6.75,0 C10.4779221,0 13.5,3.12633064 13.5,6.98285492 C13.5,10.8393792 7.4852178,17.6364022 7.4852178,17.6364022 C7.0801359,18.1204333 6.42371337,18.1193596 6.02121841,17.6441839 C6.02121841,17.6441839 0,10.8393792 0,6.98285492 Z M6.89064246,16.5952352 C7.09030905,16.360457 7.31340041,16.0918473 7.55399088,15.7942572 C8.24180203,14.943493 8.92961655,14.0339234 9.56966079,13.1054494 C10.2014307,12.1889785 10.7515683,11.3038298 11.1960552,10.4721516 C11.9635695,9.03605809 12.375,7.82944428 12.375,6.98285492 C12.375,3.74875569 9.8507564,1.13743319 6.75,1.13743319 C3.6492436,1.13743319 1.125,3.74875569 1.125,6.98285492 C1.125,7.83019907 1.53773518,9.03896353 2.30754077,10.4779462 C2.75214788,11.3090417 3.30211224,12.1935037 3.93350359,13.1092624 C4.57426583,14.0386124 5.26284987,14.9491162 5.95143128,15.8008127 C6.19229214,16.0987301 6.41563507,16.3676439 6.61552814,16.6026955 C6.73406042,16.742076 6.77224781,16.7344497 6.89064246,16.5952352 Z M6.72016525,8.60283507 C7.98938404,8.60283507 9.01828917,7.56255877 9.01828917,6.27931293 C9.01828917,4.99606708 7.98938404,3.95579079 6.72016525,3.95579079 C5.45094646,3.95579079 4.42204134,4.99606708 4.42204134,6.27931293 C4.42204134,7.56255877 5.45094646,8.60283507 6.72016525,8.60283507 Z M6.72016525,7.45615624 C7.36301329,7.45615624 7.88414458,6.92926554 7.88414458,6.27931293 C7.88414458,5.62936032 7.36301329,5.10246962 6.72016525,5.10246962 C6.07731722,5.10246962 5.55618592,5.62936032 5.55618592,6.27931293 C5.55618592,6.92926554 6.07731722,7.45615624 6.72016525,7.45615624 Z" id="marker"></path>
                            </g>
                        </g>
                    </g>
                </g>
            </g>
        </g>
    </g>
</svg>