<?xml version="1.0" encoding="UTF-8" standalone="no"?>
<svg width="18px" height="16px" viewBox="0 0 18 16" version="1.1" xmlns="http://www.w3.org/2000/svg" xmlns:xlink="http://www.w3.org/1999/xlink">
    <!-- Generator: Sketch 3.7.2 (28276) - http://www.bohemiancoding.com/sketch -->
    <title>map</title>
    <desc>Created with Sketch.</desc>
    <defs></defs>
    <g id="Page-1" stroke="none" stroke-width="1" fill="none" fill-rule="evenodd">
        <g id="Local-Deal-Page-v5---white-Copy-2" transform="translate(-634.000000, -210.000000)" fill="#75787B">
            <g id="Group-6" transform="translate(190.000000, 168.000000)">
                <g id="Group-40" transform="translate(317.000000, 42.000000)">
                    <path d="M143.674133,0.189866667 C143.493333,0.0645333333 143.3472,0.000266666667 143.133333,0.000266666667 C143.006933,0.000266666667 142.88,0.0226666667 142.758667,0.0682666667 L138.8136,1.54666667 C138.8136,1.54666667 138.728533,1.6 138.600267,1.6 C138.472,1.6 138.306933,1.54666667 138.306933,1.54666667 L133.304533,0.0450666667 C133.156533,0.000533333333 132.694667,0 132.6,0 C132.505333,0 132.226667,0 132.058933,0.068 L127.758933,1.668 C127.3424,1.82373333 127,2.22213333 127,2.66666667 L127,14.9333333 C127,15.2832 127.2384,15.6109333 127.525867,15.8104 C127.706933,15.9354667 127.985867,16 128.2,16 C128.3264,16 128.453067,15.9776 128.5744,15.932 L132.520267,14.4533333 C132.520267,14.4533333 132.600267,14.4 132.7336,14.4 C132.866933,14.4 133.026933,14.4533333 133.026933,14.4533333 L138.026933,15.9552 C138.1208,15.9829333 138.270667,16 138.466667,16 C138.662667,16 139.076267,15.9818667 139.207467,15.932 L143.4408,14.3322667 C143.857333,14.176 144.066667,13.7778667 144.066667,13.3333333 L144.066667,1.06666667 C144.066933,0.717066667 143.9616,0.389333333 143.674133,0.189866667 L143.674133,0.189866667 Z M128.066667,14.9333333 L128.066667,2.66666667 L132.333333,1.06666667 L132.333333,13.3333333 L128.066667,14.9333333 Z M138.2,14.9333333 L132.866667,13.3333333 L132.866667,1.06666667 L138.2,2.66666667 L138.2,14.9333333 L138.2,14.9333333 Z M143,13.3333333 L138.733333,14.9333333 L138.733333,2.66666667 L143,1.06666667 L143,13.3333333 L143,13.3333333 Z" id="map" transform="translate(135.533334, 8.000000) scale(-1, 1) translate(-135.533334, -8.000000) "></path>
                </g>
            </g>
        </g>
    </g>
</svg>