<?xml version="1.0" encoding="UTF-8" standalone="no"?>
<svg width="16px" height="15px" viewBox="0 0 16 15" version="1.1" xmlns="http://www.w3.org/2000/svg" xmlns:xlink="http://www.w3.org/1999/xlink">
    <!-- Generator: Sketch 3.7.2 (28276) - http://www.bohemiancoding.com/sketch -->
    <title>Shape Copy</title>
    <desc>Created with Sketch.</desc>
    <defs></defs>
    <g id="Page-1" stroke="none" stroke-width="1" fill="none" fill-rule="evenodd">
        <g id="Local-Deal-Page-v5---white-Copy-2" transform="translate(-322.000000, -1723.000000)" fill="#333333">
            <g id="Map-+-Rectangle-339-Copy-+-Group-+-Oval-12-+-Imported-Layers-Copy-4-+-Oval-12-Copy-+-Imported-Layers-Copy-5-Copy-Copy-Copy-Copy" transform="translate(-240.000000, 1342.000000)">
                <g id="Rectangle-339-Copy-+-Group-+-Oval-12-+-Imported-Layers-Copy-4-+-Oval-12-Copy-+-Imported-Layers-Copy-5-Copy-Copy-Copy-Copy" transform="translate(430.000000, 20.000000)">
                    <g id="Rectangle-339-Copy-+-Group" transform="translate(91.000000, 0.000000)">
                        <g id="+14153941100-+-Shape-Copy" transform="translate(40.250000, 360.000000)">
                            <g id="Rectangle-950-Copy-2-+-Shape-Copy">
                                <path d="M16.2186615,10.6651562 L15.5782638,10.3419531 C15.1336047,10.0874219 14.6005555,9.82398438 13.9936426,9.56007813 C13.3180365,9.266875 12.7857259,9.098125 12.3664267,9.04445313 C12.3248168,9.03953125 12.2827146,9.03625 12.2413509,9.03625 C12.0310858,9.03625 11.8254987,9.10304688 11.6548737,9.22914063 C11.1855934,9.57484375 10.7217297,10.04125 10.24851,10.6459375 C10.0318434,10.5203125 9.72678653,10.3119531 9.31364259,9.96601563 C8.54078274,9.32054688 7.85483577,8.629375 7.27426759,7.91007813 C7.00737365,7.58007813 6.84905926,7.35085938 6.7564835,7.19898438 C6.98890774,6.91140625 7.2784532,6.53476563 7.63078274,6.060625 C7.7945138,5.8403125 7.85803653,5.561875 7.80559335,5.2928125 C7.51235471,3.79164063 6.91110471,2.50375 6.01833956,1.465 C5.90261987,1.33070313 5.75316911,1.23039063 5.58500623,1.1734375 L5.40428653,1.11203125 C5.39025244,1.1078125 5.3752335,1.103125 5.36119941,1.09914062 C5.12803653,1.03210938 4.85154032,1 4.51496835,1 C4.18430547,1 3.85118047,1.05273438 3.52371835,1.15773437 C3.05665396,1.27257812 2.61519562,1.56015625 2.20993047,2.01273437 C1.8447979,2.42054687 1.5463888,2.944375 1.32405926,3.5659375 C0.93405926,4.64757813 0.895896381,5.7775 1.21055547,6.92429688 C1.21966532,6.95664063 1.23000623,6.98898438 1.24256305,7.020625 C1.7982638,8.44421875 2.52705168,9.73234375 3.40799865,10.8479687 C4.28254411,11.9563281 5.14724108,12.8310156 5.97746835,13.448125 C6.7929229,14.0539844 7.64924865,14.565625 8.52207062,14.9675781 C9.40646456,15.3753906 10.0997979,15.6350781 10.6397411,15.7625781 C11.1624494,15.8853906 11.5802714,15.9580469 11.9151199,15.983125 C12.0296085,15.994375 12.146313,16 12.2640024,16 C12.9472411,16 13.6999115,15.810625 14.5057638,15.4349219 C15.3820327,15.0203125 16.0162752,14.3185937 16.3929797,13.3426562 C16.5857638,12.8324219 16.7069002,12.2495312 16.7549115,11.6099219 C16.7839646,11.2159375 16.5724684,10.84375 16.2186615,10.6651562 L16.2186615,10.6651562 Z M15.4709243,13.0271064 C15.1887735,13.7627811 14.726647,14.2833435 14.0828214,14.5895012 C13.2979204,14.9572206 12.6038689,15.1105353 11.9999285,15.0494453 C11.718024,15.0293964 11.3403457,14.9628814 10.8681249,14.850372 C10.3954116,14.7383344 9.75133973,14.4930308 8.93664793,14.1154049 C8.12146372,13.7375432 7.33163861,13.2622676 6.5671726,12.6909934 C5.80246038,12.1190116 5.00771118,11.3071513 4.18292498,10.2549407 C3.35764637,9.2039094 2.68353753,8.00333733 2.16084467,6.65534727 C1.89912893,5.69559722 1.92941212,4.76627424 2.25144805,3.86737833 C2.4324086,3.35672243 2.66359494,2.94324446 2.94525327,2.62623683 C3.2269116,2.31017267 3.50856994,2.12100591 3.79047447,2.0599159 C4.03200141,1.97806943 4.27328215,1.9375 4.5148091,1.9375 C4.75633604,1.9375 4.94739099,1.95802058 5.08822016,1.99859001 L5.26918071,2.0599159 C6.05383552,2.97862478 6.57702079,4.11244599 6.83849033,5.46043605 C6.29511626,6.19563902 5.90315816,6.69638843 5.66163122,6.96174081 C5.60155724,7.22756492 5.88247695,7.74812731 6.50685242,8.52413558 C7.12999685,9.30085146 7.85457768,10.0355827 8.67936388,10.7297445 C9.50464249,11.4243781 10.1482219,11.7923334 10.6115794,11.8326669 C11.1744037,11.0163251 11.7177777,10.4139162 12.2412092,10.0252045 C12.5625065,10.0660098 13.0157696,10.2143712 13.5992751,10.4691095 C14.1827806,10.7247913 14.6860232,10.9748122 15.1085107,11.2198798 L15.7727714,11.5567004 C15.7321476,12.1083975 15.6319422,12.5985328 15.4709243,13.0271064 L15.4709243,13.0271064 Z" id="Shape-Copy"></path>
                            </g>
                        </g>
                    </g>
                </g>
            </g>
        </g>
    </g>
</svg>