<?xml version="1.0" encoding="UTF-8" standalone="no"?>
<svg width="17px" height="19px" viewBox="0 0 17 19" version="1.1" xmlns="http://www.w3.org/2000/svg" xmlns:xlink="http://www.w3.org/1999/xlink">
    <!-- Generator: Sketch 3.8.1 (29687) - http://www.bohemiancoding.com/sketch -->
    <title>download</title>
    <desc>Created with Sketch.</desc>
    <defs></defs>
    <g id="Page-1" stroke="none" stroke-width="1" fill="none" fill-rule="evenodd">
        <g id="Local" transform="translate(-345.000000, -13.000000)" fill="#FFFFFF">
            <g id="Group-Copy">
                <g id="Group-3" transform="translate(331.000000, 0.000000)">
                    <path d="M18.2456416,28.0669378 L21.9956562,31.8169524 C22.2394072,32.0610159 22.6356587,32.0610159 22.8794097,31.8169524 L26.6294243,28.0669378 C26.8734878,27.8228743 26.8734878,27.4272478 26.6294243,27.1831843 C26.3856734,26.9391209 25.9894218,26.9391209 25.7456709,27.1831843 L23.0625354,29.8663198 L23.0625354,19.5000293 C23.0625354,19.1550279 22.7825343,18.8750269 22.437533,18.8750269 C22.0922191,18.8750269 21.8125305,19.1550279 21.8125305,19.5000293 L21.8125305,29.8663198 L19.129395,27.1831843 C19.0072071,27.0609963 18.8475189,27.0000586 18.6875183,27.0000586 C18.5275177,27.0000586 18.3678296,27.0609963 18.2456416,27.1831843 C18.0015781,27.4272478 18.0015781,27.8228743 18.2456416,28.0669378 Z M15.2500049,25.5000488 L17.7500146,25.5000488 C18.0947035,25.5000488 18.3750171,25.2203602 18.3750171,24.8750464 C18.3750171,24.530045 18.0947035,24.2500439 17.7500146,24.2500439 L15.2500049,24.2500439 L15.2500049,14.2500049 L29.0000586,14.2500049 L29.0000586,24.2500439 L26.5000488,24.2500439 C26.1544225,24.2500439 25.8750464,24.530045 25.8750464,24.8750464 C25.8750464,25.2203602 26.1544225,25.5000488 26.5000488,25.5000488 L29.0000586,25.5000488 C29.6903738,25.5000488 30.2500635,24.9012965 30.2500635,24.2109813 L30.2500635,14.2109422 C30.2500635,13.520627 29.6903738,13 29.0000586,13 L15.2500049,13 C14.5596897,13 14,13.520627 14,14.2109422 L14,24.2109813 C14,24.9012965 14.5596897,25.5000488 15.2500049,25.5000488 Z" id="download" transform="translate(22.125032, 22.500000) scale(1, -1) translate(-22.125032, -22.500000) "></path>
                </g>
            </g>
        </g>
    </g>
</svg>