<?xml version="1.0" encoding="UTF-8" standalone="no"?>
<svg width="16px" height="16px" viewBox="0 0 16 16" version="1.1" xmlns="http://www.w3.org/2000/svg" xmlns:xlink="http://www.w3.org/1999/xlink">
    <!-- Generator: Sketch 3.7.2 (28276) - http://www.bohemiancoding.com/sketch -->
    <title>clock</title>
    <desc>Created with Sketch.</desc>
    <defs></defs>
    <g id="Page-1" stroke="none" stroke-width="1" fill="none" fill-rule="evenodd">
        <g id="Local-Deal-Page-v5---white-Copy-2" transform="translate(-507.000000, -212.000000)" fill="#75787B">
            <g id="Group-6" transform="translate(190.000000, 168.000000)">
                <g id="Group-40" transform="translate(317.000000, 42.000000)">
                    <path d="M8,2 C3.58175,2 0,5.58175 0,10 C0,14.41825 3.58175,18 8,18 C12.41825,18 16,14.41825 16,10 C16,5.58175 12.41825,2 8,2 Z M8,17 C4.134,17 1,13.866 1,10 C1,6.134 4.134,3 8,3 C11.866,3 15,6.134 15,10 C15,13.866 11.866,17 8,17 Z M7.74570858,5.25 C8.01933972,5.25 8.24141717,5.47406113 8.24141717,5.75013644 L8.24141717,10.2088528 L11.0022661,11.8170416 C11.2394627,11.9550792 11.3202632,12.2606626 11.1834476,12.4999779 C11.0461363,12.7392932 10.7437541,12.8208154 10.5065575,12.6830278 L7.54122879,10.9555566 C7.36996148,10.8770351 7.25,10.7037379 7.25,10.5011826 L7.25,5.74988638 C7.25,5.47406113 7.47207745,5.25 7.74570858,5.25 Z" id="clock"></path>
                </g>
            </g>
        </g>
    </g>
</svg>