<?xml version="1.0" encoding="UTF-8" standalone="no"?>
<svg width="151px" height="25px" viewBox="0 0 151 25" version="1.1" xmlns="http://www.w3.org/2000/svg" xmlns:xlink="http://www.w3.org/1999/xlink">
    <!-- Generator: Sketch 3.7.2 (28276) - http://www.bohemiancoding.com/sketch -->
    <title>Groupon Logo</title>
    <desc>Created with Sketch.</desc>
    <defs></defs>
    <g id="Page-1" stroke="none" stroke-width="1" fill="none" fill-rule="evenodd">
        <g id="Local-Deal-Page-v5---white-Copy-2" transform="translate(-189.000000, -20.000000)" fill="#FFFFFF">
            <g id="Group-28" transform="translate(-240.000000, 0.000000)">
                <g id="Header">
                    <g id="Group" transform="translate(429.000000, 13.000000)">
                        <g id="Groupon-Logo" transform="translate(0.000000, 7.000000)">
                            <path d="M24.111,12.863 C24.111,15.509 23.45,17.757 22.094,19.741 C19.844,23.016 16.074,25 12.072,25 C8.599,25 5.655,23.711 3.34,21.263 C1.124,18.915 2.27373675e-13,16.005 2.27373675e-13,12.532 C2.27373675e-13,9.29 1.257,6.313 3.571,4.032 C5.887,1.749 8.797,0.558 12.138,0.558 C17.166,0.558 21.564,3.635 23.45,8.662 L16.901,8.662 C15.445,7.14 13.924,6.379 12.072,6.379 C8.632,6.379 5.92,9.191 5.92,12.564 C5.92,16.302 8.83,19.18 12.072,19.18 C14.255,19.18 16.206,18.055 17.364,16.005 L10.65,16.005 L10.65,11.308 L24.045,11.308 C24.078,11.837 24.111,12.367 24.111,12.863" id="Fill-1"></path>
                            <path d="M32.447,11.869 C35.292,11.869 36.681,11.142 36.681,9.024 C36.681,7.073 35.457,6.28 32.91,6.28 L31.322,6.28 L31.322,11.869 L32.447,11.869 L32.447,11.869 Z M25.568,24.537 L25.568,1.021 L33.374,1.021 C35.854,1.021 37.74,1.187 39.326,2.311 C41.41,3.767 42.502,5.982 42.502,8.892 C42.502,12.697 40.517,15.541 37.178,16.467 L42.932,24.537 L35.82,24.537 L31.322,16.963 L31.322,24.537 L25.568,24.537 L25.568,24.537 Z" id="Fill-2"></path>
                            <path d="M55.5,19.146 C58.875,19.146 61.619,16.433 61.619,12.597 C61.619,9.158 58.875,6.412 55.566,6.412 C52.062,6.412 49.316,9.158 49.316,12.597 C49.316,16.301 52.259,19.146 55.5,19.146 M46.967,4.031 C49.284,1.748 52.194,0.591 55.534,0.591 C58.677,0.591 61.653,1.815 63.935,4.065 C66.315,6.412 67.574,9.422 67.574,12.631 C67.574,16.004 66.382,19.013 64.167,21.296 C61.884,23.677 58.775,24.967 55.5,24.967 C52.029,24.967 49.05,23.711 46.737,21.262 C44.521,18.914 43.396,16.004 43.396,12.531 C43.396,9.29 44.653,6.313 46.967,4.031" id="Fill-3"></path>
                            <path d="M74.85,1.021 L74.85,15.508 C74.85,18.154 75.677,19.51 77.628,19.51 C79.646,19.51 80.605,18.187 80.605,15.508 L80.605,1.021 L86.36,1.021 L86.36,15.739 C86.36,21.494 82.855,24.901 77.596,24.901 C72.271,24.901 69.063,21.626 69.063,15.739 L69.063,1.021 L74.85,1.021" id="Fill-4"></path>
                            <path d="M94.899,11.869 C97.744,11.869 99.133,11.142 99.133,9.024 C99.133,7.073 97.909,6.28 95.363,6.28 L93.841,6.28 L93.841,11.869 L94.899,11.869 L94.899,11.869 Z M88.02,24.537 L88.02,1.021 L95.826,1.021 C98.306,1.021 100.192,1.187 101.779,2.311 C103.863,3.767 104.955,5.982 104.955,8.926 C104.955,11.969 103.565,14.483 101.217,15.905 C99.728,16.797 97.876,16.963 95.428,16.963 L93.775,16.963 L93.775,24.537 L88.02,24.537 L88.02,24.537 Z" id="Fill-5"></path>
                            <path d="M117.821,19.146 C121.194,19.146 123.94,16.433 123.94,12.597 C123.94,9.158 121.194,6.412 117.887,6.412 C114.381,6.412 111.636,9.158 111.636,12.597 C111.636,16.301 114.579,19.146 117.821,19.146 M109.288,4.031 C111.603,1.748 114.513,0.591 117.854,0.591 C120.996,0.591 123.973,1.815 126.255,4.065 C128.636,6.412 129.893,9.422 129.893,12.631 C129.893,16.004 128.703,19.013 126.487,21.296 C124.205,23.677 121.095,24.967 117.821,24.967 C114.348,24.967 111.371,23.711 109.056,21.262 C106.84,18.914 105.715,16.004 105.715,12.531 C105.715,9.29 106.972,6.313 109.288,4.031" id="Fill-6"></path>
                            <polyline id="Fill-7" points="144.845 1.021 144.845 14.086 136.212 1.021 131.021 1.021 131.021 24.537 136.776 24.537 136.776 11.439 145.54 24.537 150.6 24.537 150.6 1.021 144.845 1.021"></polyline>
                        </g>
                    </g>
                </g>
            </g>
        </g>
    </g>
</svg>