<?xml version="1.0" encoding="UTF-8" standalone="no"?>
<svg width="13px" height="13px" viewBox="0 0 13 13" version="1.1" xmlns="http://www.w3.org/2000/svg" xmlns:xlink="http://www.w3.org/1999/xlink">
    <!-- Generator: Sketch 3.7.2 (28276) - http://www.bohemiancoding.com/sketch -->
    <title>Shape Copy 6</title>
    <desc>Created with Sketch.</desc>
    <defs></defs>
    <g id="Page-1" stroke="none" stroke-width="1" fill="none" fill-rule="evenodd">
        <g id="Local-Deal-Page-v5---white-Copy-2" transform="translate(-323.000000, -1753.000000)" fill="#333333">
            <g id="Map-+-Rectangle-339-Copy-+-Group-+-Oval-12-+-Imported-Layers-Copy-4-+-Oval-12-Copy-+-Imported-Layers-Copy-5-Copy-Copy-Copy-Copy" transform="translate(-240.000000, 1342.000000)">
                <g id="Rectangle-339-Copy-+-Group-+-Oval-12-+-Imported-Layers-Copy-4-+-Oval-12-Copy-+-Imported-Layers-Copy-5-Copy-Copy-Copy-Copy" transform="translate(430.000000, 20.000000)">
                    <g id="Rectangle-339-Copy-+-Group" transform="translate(91.000000, 0.000000)">
                        <g id="View-Website-+-Shape-Copy-6" transform="translate(40.000000, 389.000000)">
                            <g id="Rectangle-950-Copy-3-+-Shape-Copy-6">
                                <path d="M14.1333333,2 L2.86666667,2 C2.38805,2 2,2.36379687 2,2.8125 L2,14.1875 C2,14.6362031 2.38805,15 2.86666667,15 L14.1333333,15 C14.61195,15 15,14.6362031 15,14.1875 L15,2.8125 C15,2.36379687 14.61195,2 14.1333333,2 L14.1333333,2 Z M6.33333333,14.1875 L2.86666667,14.1875 L2.86666667,7.28125 L6.33333333,7.28125 L6.33333333,14.1875 L6.33333333,14.1875 Z M14.1333333,14.1875 L6.76666667,14.1875 L6.76666667,7.28125 L14.1333333,7.28125 L14.1333333,14.1875 L14.1333333,14.1875 Z M14.1333333,6.875 L6.76666667,6.875 L6.33333333,6.875 L2.86666667,6.875 L2.86666667,2.8125 L14.1333333,2.8125 L14.1333333,6.875 L14.1333333,6.875 Z" id="Shape-Copy-6"></path>
                            </g>
                        </g>
                    </g>
                </g>
            </g>
        </g>
    </g>
</svg>