<?xml version="1.0" encoding="UTF-8" standalone="no"?>
<svg width="12px" height="15px" viewBox="0 0 12 15" version="1.1" xmlns="http://www.w3.org/2000/svg" xmlns:xlink="http://www.w3.org/1999/xlink">
    <!-- Generator: Sketch 3.7.2 (28276) - http://www.bohemiancoding.com/sketch -->
    <title>Shape</title>
    <desc>Created with Sketch.</desc>
    <defs></defs>
    <g id="Page-1" stroke="none" stroke-width="1" fill="none" fill-rule="evenodd">
        <g id="Local-Deal-Page-v5---white-Copy-2" transform="translate(-324.000000, -1632.000000)" fill="#333333">
            <g id="Map-+-Rectangle-339-Copy-+-Group-+-Oval-12-+-Imported-Layers-Copy-4-+-Oval-12-Copy-+-Imported-Layers-Copy-5-Copy-Copy-Copy-Copy" transform="translate(-240.000000, 1342.000000)">
                <g id="Rectangle-339-Copy-+-Group-+-Oval-12-+-Imported-Layers-Copy-4-+-Oval-12-Copy-+-Imported-Layers-Copy-5-Copy-Copy-Copy-Copy" transform="translate(430.000000, 20.000000)">
                    <g id="Rectangle-339-Copy-+-Group" transform="translate(91.000000, 0.000000)">
                        <g id="222-Mason-Street,-Sa-+-Shape-+-Directions-Copy" transform="translate(40.250000, 269.000000)">
                            <g id="Rectangle-950-Copy-+-Shape">
                                <path d="M8.74608779,15.076702 L8.74608779,15.076702 L8.75945599,15.0920672 C8.72015352,15.0458948 8.58414803,15.0458261 8.55864065,15.076702 C8.5940377,15.0368942 8.66385056,14.9568991 8.76312598,14.8407339 C8.93053638,14.6448418 9.11758413,14.4207311 9.31930231,14.1724501 C9.89598648,13.462649 10.4726756,12.7038346 11.0093296,11.9292911 C11.5381764,11.1660156 11.9988384,10.4287975 12.3712866,9.73599495 C13.0165845,8.53565623 13.3626677,7.52705448 13.3626677,6.81873271 C13.3626677,4.11940355 11.2475792,1.9420607 8.65236422,1.9420607 C6.05714923,1.9420607 3.9420607,4.11940355 3.9420607,6.81873271 C3.9420607,7.52705448 4.28814389,8.53565623 4.93344182,9.73599495 C5.30589008,10.4287975 5.766552,11.1660156 6.29539885,11.9292911 C6.83205283,12.7038346 7.40874196,13.462649 7.98542613,14.1724501 C8.18714431,14.4207311 8.37419206,14.6448418 8.54160246,14.8407339 C8.64087788,14.9568991 8.71069074,15.0368942 8.74608779,15.076702 L8.74608779,15.076702 Z M8.04209178,15.7026956 L8.04209178,15.7026956 C8.04209178,15.7026956 3,10.03233 3,6.81873271 C3,3.60513537 5.53064966,1 8.65236422,1 C11.7740788,1 14.3047284,3.60513537 14.3047284,6.81873271 C14.3047284,10.03233 9.26263666,15.7026956 9.26263666,15.7026956 C8.92881582,16.0995487 8.37913594,16.098654 8.04209178,15.7026956 L8.04209178,15.7026956 Z M8.6726038,8.10041456 C9.45303244,8.10041456 10.0856949,7.46775214 10.0856949,6.6873235 C10.0856949,5.90689486 9.45303244,5.27423245 8.6726038,5.27423245 C7.89217516,5.27423245 7.25951275,5.90689486 7.25951275,6.6873235 C7.25951275,7.46775214 7.89217516,8.10041456 8.6726038,8.10041456 L8.6726038,8.10041456 Z M8.6726038,9.04247526 L8.6726038,9.04247526 C7.3718894,9.04247526 6.31745205,7.9880379 6.31745205,6.6873235 C6.31745205,5.3866091 7.3718894,4.33217174 8.6726038,4.33217174 C9.9733182,4.33217174 11.0277556,5.3866091 11.0277556,6.6873235 C11.0277556,7.9880379 9.9733182,9.04247526 8.6726038,9.04247526 L8.6726038,9.04247526 Z" id="Shape"></path>
                            </g>
                        </g>
                    </g>
                </g>
            </g>
        </g>
    </g>
</svg>