<?xml version="1.0" encoding="UTF-8" standalone="no"?>
<svg width="17px" height="18px" viewBox="0 0 17 18" version="1.1" xmlns="http://www.w3.org/2000/svg" xmlns:xlink="http://www.w3.org/1999/xlink">
    <!-- Generator: Sketch 3.7.2 (28276) - http://www.bohemiancoding.com/sketch -->
    <title>Shape</title>
    <desc>Created with Sketch.</desc>
    <defs></defs>
    <g id="Page-1" stroke="none" stroke-width="1" fill="none" fill-rule="evenodd">
        <g id="Local-Deal-Page-v5---white-Copy-2" transform="translate(-381.000000, -24.000000)" stroke="#81B740" fill="#53A318">
            <g id="Group-28" transform="translate(-240.000000, 0.000000)">
                <g id="Header">
                    <g id="Group" transform="translate(429.000000, 13.000000)">
                        <g id="Search-Bar" transform="translate(180.000000, 0.000000)">
                            <g id="Search-Icon" transform="translate(12.500000, 12.000000)">
                                <path d="M15.6981667,14.5970909 L11.597803,10.496 C12.4683485,9.41551515 12.9900455,8.04218182 12.9905303,6.54545455 C12.9917424,3.0630303 10.1704091,0.241454545 6.6875,0.242424242 C3.20507576,0.243393939 0.385681818,3.0630303 0.384469697,6.54545455 C0.3835,10.0281212 3.20507576,12.8494545 6.6875,12.8484848 C8.18422727,12.8482424 9.55780303,12.326303 10.6382879,11.4557576 L14.7384091,15.5563636 C14.997803,15.8152727 15.4201061,15.8341818 15.6981667,15.5563636 C15.9757424,15.278303 15.9575606,14.856 15.6981667,14.5970909 L15.6981667,14.5970909 Z M1.35416667,6.54545455 C1.35416667,3.60024242 3.74228788,1.21212121 6.6875,1.21212121 C9.63271212,1.21212121 12.0208333,3.60024242 12.0208333,6.54545455 C12.0208333,9.49090909 9.63271212,11.8787879 6.6875,11.8787879 C3.74228788,11.8787879 1.35416667,9.49090909 1.35416667,6.54545455 L1.35416667,6.54545455 Z" id="Shape"></path>
                            </g>
                        </g>
                    </g>
                </g>
            </g>
        </g>
    </g>
</svg>