<?xml version="1.0" encoding="UTF-8" standalone="no"?>
<svg width="20px" height="20px" viewBox="0 0 20 20" version="1.1" xmlns="http://www.w3.org/2000/svg" xmlns:xlink="http://www.w3.org/1999/xlink">
    <!-- Generator: Sketch 3.8.1 (29687) - http://www.bohemiancoding.com/sketch -->
    <title>search</title>
    <desc>Created with Sketch.</desc>
    <defs></defs>
    <g id="Page-1" stroke="none" stroke-width="1" fill="none" fill-rule="evenodd">
        <g id="Local" transform="translate(-255.000000, -12.000000)" fill="#FFFFFF">
            <g id="Group-Copy">
                <g id="Group-+-Group-Copy-6-+-search_icon" transform="translate(243.000000, 0.000000)">
                    <path d="M31.740156,30.5039158 L26.454573,25.2173953 C27.5767516,23.8245939 28.2492462,22.0542954 28.2498712,20.1249358 C28.2514337,15.6359089 24.6145876,11.9987503 20.1249358,12.0000003 C15.6359089,12.0012503 12.0015628,15.6359089 12.0000003,20.1249358 C11.9987503,24.6142751 15.6359089,28.2511212 20.1249358,28.2498712 C22.0542954,28.2495587 23.8249064,27.5767516 25.2177078,26.454573 L30.5029783,31.7404685 C30.8373507,32.0742158 31.3817213,32.0985906 31.740156,31.7404685 C32.0979656,31.3820338 32.0745283,30.8376632 31.740156,30.5039158 L31.740156,30.5039158 Z M13.2499904,20.1249358 C13.2499904,16.3284034 16.3284034,13.2499904 20.1249358,13.2499904 C23.9214681,13.2499904 26.9998811,16.3284034 26.9998811,20.1249358 C26.9998811,23.9217806 23.9214681,26.9998811 20.1249358,26.9998811 C16.3284034,26.9998811 13.2499904,23.9217806 13.2499904,20.1249358 L13.2499904,20.1249358 Z" id="search"></path>
                </g>
            </g>
        </g>
    </g>
</svg>